<mxfile host="app.diagrams.net" modified="2023-12-08T10:00:15.200Z" agent="Mozilla/5.0 (Windows NT 10.0; Win64; x64) AppleWebKit/537.36 (KHTML, like Gecko) Chrome/120.0.0.0 Safari/537.36" version="22.1.7" etag="Eu4Af6h7EnbSeql3nFW_" type="github">
  <diagram name="Trang-1" id="akpxlFBeJfwB497wJD3s">
    <mxGraphModel>
      <root>
        <mxCell id="0" />
        <mxCell id="1" parent="0" />
      </root>
    </mxGraphModel>
  </diagram>
</mxfile>
